<svg width="1200" height="700" viewBox="0 0 1200 700" fill="none" xmlns="http://www.w3.org/2000/svg">
  <defs>
    <linearGradient id="coursesBg" x1="0" y1="0" x2="1200" y2="700" gradientUnits="userSpaceOnUse">
      <stop stop-color="#EEF2FF"/>
      <stop offset="1" stop-color="#E2E8F0"/>
    </linearGradient>
    <linearGradient id="btn" x1="0" y1="0" x2="1" y2="1">
      <stop stop-color="#D946EF"/>
      <stop offset="1" stop-color="#A855F7"/>
    </linearGradient>
  </defs>

  <rect width="1200" height="700" fill="url(#coursesBg)"/>

  <rect x="118" y="102" width="300" height="254" rx="10" fill="white" stroke="#CBD5E1"/>
  <rect x="118" y="102" width="300" height="140" rx="10" fill="#D1D5DB"/>
  <text x="141" y="282" fill="#1E275D" font-family="Poppins, Arial, sans-serif" font-size="42" font-weight="700">STD :- 1 to 10 NCERT</text>
  <rect x="141" y="296" width="174" height="48" rx="8" fill="url(#btn)"/>
  <text x="174" y="328" fill="white" font-family="Poppins, Arial, sans-serif" font-size="30" font-weight="700">Apply Now</text>

  <rect x="450" y="102" width="300" height="254" rx="10" fill="white" stroke="#CBD5E1"/>
  <rect x="450" y="102" width="300" height="140" rx="10" fill="#D1D5DB"/>
  <text x="473" y="282" fill="#1E275D" font-family="Poppins, Arial, sans-serif" font-size="42" font-weight="700">STD :- 1 to 10 CBSE</text>
  <rect x="473" y="296" width="174" height="48" rx="8" fill="url(#btn)"/>
  <text x="506" y="328" fill="white" font-family="Poppins, Arial, sans-serif" font-size="30" font-weight="700">Apply Now</text>

  <rect x="782" y="102" width="300" height="254" rx="10" fill="white" stroke="#CBD5E1"/>
  <rect x="782" y="102" width="300" height="140" rx="10" fill="#D1D5DB"/>
  <text x="806" y="282" fill="#1E275D" font-family="Poppins, Arial, sans-serif" font-size="42" font-weight="700">11 &amp; 12 COMMERCE</text>
  <rect x="806" y="296" width="174" height="48" rx="8" fill="url(#btn)"/>
  <text x="839" y="328" fill="white" font-family="Poppins, Arial, sans-serif" font-size="30" font-weight="700">Apply Now</text>

  <rect x="286" y="398" width="300" height="254" rx="10" fill="white" stroke="#CBD5E1"/>
  <rect x="286" y="398" width="300" height="254" rx="10" fill="#A5B4FC"/>

  <rect x="618" y="398" width="300" height="254" rx="10" fill="white" stroke="#CBD5E1"/>
  <rect x="618" y="398" width="300" height="140" rx="10" fill="#D1D5DB"/>
  <text x="642" y="572" fill="#1E275D" font-family="Poppins, Arial, sans-serif" font-size="42" font-weight="700">Diploma IT &amp; CE</text>
  <rect x="642" y="586" width="174" height="48" rx="8" fill="url(#btn)"/>
  <text x="675" y="618" fill="white" font-family="Poppins, Arial, sans-serif" font-size="30" font-weight="700">Apply Now</text>
</svg>
