<svg width="1280" height="720" viewBox="0 0 1280 720" fill="none" xmlns="http://www.w3.org/2000/svg">
  <rect width="1280" height="720" fill="#08111E"/>
  <rect x="30" y="24" width="1220" height="672" rx="22" fill="#0F1E37" stroke="#2A4268"/>
  <rect x="72" y="70" width="1136" height="60" rx="12" fill="#192F52"/>
  <rect x="96" y="92" width="250" height="16" rx="8" fill="#93C5FD"/>
  <rect x="1068" y="84" width="120" height="30" rx="15" fill="#22D3EE"/>
  <rect x="72" y="160" width="260" height="500" rx="16" fill="#162B4B"/>
  <rect x="94" y="196" width="210" height="16" rx="8" fill="#BAE6FD"/>
  <rect x="94" y="228" width="230" height="44" rx="12" fill="#28466E"/>
  <rect x="94" y="284" width="230" height="44" rx="12" fill="#28466E"/>
  <rect x="94" y="340" width="230" height="44" rx="12" fill="#28466E"/>
  <rect x="360" y="160" width="848" height="250" rx="16" fill="#1A3255"/>
  <rect x="386" y="190" width="190" height="90" rx="12" fill="#0EA5E9"/>
  <rect x="596" y="190" width="190" height="90" rx="12" fill="#6366F1"/>
  <rect x="806" y="190" width="190" height="90" rx="12" fill="#14B8A6"/>
  <rect x="1016" y="190" width="166" height="90" rx="12" fill="#22D3EE"/>
  <rect x="386" y="300" width="760" height="18" rx="9" fill="#405A85"/>
  <rect x="360" y="440" width="406" height="220" rx="16" fill="#1A3255"/>
  <rect x="386" y="470" width="220" height="14" rx="7" fill="#BAE6FD"/>
  <rect x="386" y="498" width="340" height="120" rx="12" fill="#2A476F"/>
  <rect x="792" y="440" width="416" height="220" rx="16" fill="#1A3255"/>
  <rect x="820" y="470" width="220" height="14" rx="7" fill="#BAE6FD"/>
  <rect x="820" y="498" width="360" height="120" rx="12" fill="#2A476F"/>
  <text x="78" y="688" fill="#E2E8F0" font-family="Inter, sans-serif" font-size="22" font-weight="700">Sports Management System Dashboard</text>
</svg>
