<svg width="1280" height="720" viewBox="0 0 1280 720" fill="none" xmlns="http://www.w3.org/2000/svg">
  <rect width="1280" height="720" fill="#0B1220"/>
  <rect x="28" y="24" width="1224" height="672" rx="22" fill="#111B33" stroke="#2B3A5D"/>
  <rect x="70" y="70" width="1140" height="56" rx="10" fill="#1E2D4D"/>
  <rect x="90" y="90" width="190" height="16" rx="8" fill="#7DD3FC"/>
  <rect x="316" y="90" width="110" height="16" rx="8" fill="#93C5FD" opacity="0.8"/>
  <rect x="444" y="90" width="110" height="16" rx="8" fill="#93C5FD" opacity="0.8"/>
  <rect x="572" y="90" width="110" height="16" rx="8" fill="#93C5FD" opacity="0.8"/>
  <rect x="1040" y="84" width="150" height="28" rx="14" fill="#22D3EE"/>
  <rect x="70" y="150" width="740" height="220" rx="16" fill="url(#hero)"/>
  <rect x="90" y="188" width="320" height="24" rx="12" fill="#E2E8F0"/>
  <rect x="90" y="226" width="220" height="16" rx="8" fill="#CBD5E1"/>
  <rect x="90" y="258" width="250" height="16" rx="8" fill="#CBD5E1"/>
  <rect x="90" y="302" width="160" height="34" rx="17" fill="#0EA5E9"/>
  <rect x="830" y="150" width="380" height="220" rx="16" fill="#1D2A47"/>
  <rect x="850" y="176" width="140" height="14" rx="7" fill="#BAE6FD"/>
  <rect x="850" y="204" width="320" height="18" rx="9" fill="#334968"/>
  <rect x="850" y="232" width="320" height="18" rx="9" fill="#334968"/>
  <rect x="850" y="260" width="320" height="18" rx="9" fill="#334968"/>
  <rect x="850" y="292" width="120" height="30" rx="15" fill="#6366F1"/>
  <rect x="70" y="404" width="360" height="250" rx="16" fill="#162544"/>
  <rect x="458" y="404" width="360" height="250" rx="16" fill="#162544"/>
  <rect x="846" y="404" width="364" height="250" rx="16" fill="#162544"/>
  <rect x="98" y="434" width="190" height="16" rx="8" fill="#7DD3FC"/>
  <rect x="486" y="434" width="190" height="16" rx="8" fill="#7DD3FC"/>
  <rect x="874" y="434" width="190" height="16" rx="8" fill="#7DD3FC"/>
  <rect x="98" y="464" width="300" height="12" rx="6" fill="#475E82"/>
  <rect x="486" y="464" width="300" height="12" rx="6" fill="#475E82"/>
  <rect x="874" y="464" width="300" height="12" rx="6" fill="#475E82"/>
  <text x="104" y="620" fill="#E2E8F0" font-family="Inter, sans-serif" font-size="22" font-weight="700">Grocery Shopping Mart UI</text>
  <defs>
    <linearGradient id="hero" x1="70" y1="150" x2="810" y2="370" gradientUnits="userSpaceOnUse">
      <stop stop-color="#0EA5E9"/>
      <stop offset="1" stop-color="#6366F1"/>
    </linearGradient>
  </defs>
</svg>
