<svg width="1280" height="720" viewBox="0 0 1280 720" fill="none" xmlns="http://www.w3.org/2000/svg">
  <rect width="1280" height="720" fill="#091426"/>
  <rect x="34" y="28" width="1212" height="664" rx="24" fill="#101E39" stroke="#2A426A"/>
  <rect x="74" y="74" width="1132" height="62" rx="12" fill="#1D3257"/>
  <rect x="96" y="96" width="190" height="16" rx="8" fill="#BAE6FD"/>
  <rect x="1018" y="88" width="170" height="30" rx="15" fill="#0EA5E9"/>
  <rect x="74" y="164" width="1132" height="240" rx="18" fill="url(#hero)"/>
  <rect x="106" y="214" width="340" height="24" rx="12" fill="#E2E8F0"/>
  <rect x="106" y="252" width="240" height="16" rx="8" fill="#CBD5E1"/>
  <rect x="106" y="286" width="210" height="36" rx="18" fill="#0F172A" fill-opacity="0.4"/>
  <rect x="74" y="430" width="364" height="230" rx="16" fill="#162B4B"/>
  <rect x="458" y="430" width="364" height="230" rx="16" fill="#162B4B"/>
  <rect x="842" y="430" width="364" height="230" rx="16" fill="#162B4B"/>
  <rect x="102" y="458" width="308" height="132" rx="12" fill="#2A466F"/>
  <rect x="486" y="458" width="308" height="132" rx="12" fill="#2A466F"/>
  <rect x="870" y="458" width="308" height="132" rx="12" fill="#2A466F"/>
  <rect x="102" y="604" width="180" height="14" rx="7" fill="#BAE6FD"/>
  <rect x="486" y="604" width="180" height="14" rx="7" fill="#BAE6FD"/>
  <rect x="870" y="604" width="180" height="14" rx="7" fill="#BAE6FD"/>
  <text x="80" y="688" fill="#E2E8F0" font-family="Inter, sans-serif" font-size="22" font-weight="700">Matelmobile Product Landing + Catalog</text>
  <defs>
    <linearGradient id="hero" x1="74" y1="164" x2="1206" y2="404" gradientUnits="userSpaceOnUse">
      <stop stop-color="#0EA5E9"/>
      <stop offset="1" stop-color="#06B6D4"/>
    </linearGradient>
  </defs>
</svg>
