<svg width="1280" height="720" viewBox="0 0 1280 720" fill="none" xmlns="http://www.w3.org/2000/svg">
  <rect width="1280" height="720" fill="#0B1220"/>
  <rect x="36" y="28" width="1208" height="664" rx="24" fill="#121D36" stroke="#2D4168"/>
  <rect x="72" y="72" width="280" height="580" rx="16" fill="#162546"/>
  <rect x="380" y="72" width="828" height="580" rx="16" fill="#1A2946"/>
  <rect x="94" y="104" width="210" height="16" rx="8" fill="#7DD3FC"/>
  <rect x="94" y="136" width="220" height="50" rx="12" fill="#253B60"/>
  <rect x="94" y="198" width="220" height="50" rx="12" fill="#253B60"/>
  <rect x="94" y="260" width="220" height="50" rx="12" fill="#253B60"/>
  <rect x="94" y="322" width="220" height="50" rx="12" fill="#253B60"/>
  <rect x="406" y="104" width="784" height="56" rx="12" fill="#223657"/>
  <rect x="432" y="124" width="260" height="16" rx="8" fill="#CFFAFE"/>
  <rect x="432" y="194" width="280" height="44" rx="16" fill="#0EA5E9"/>
  <rect x="432" y="256" width="360" height="44" rx="16" fill="#334A70"/>
  <rect x="432" y="318" width="240" height="44" rx="16" fill="#0EA5E9"/>
  <rect x="432" y="380" width="420" height="44" rx="16" fill="#334A70"/>
  <rect x="432" y="442" width="320" height="44" rx="16" fill="#0EA5E9"/>
  <rect x="406" y="586" width="784" height="42" rx="12" fill="#223657"/>
  <rect x="432" y="599" width="600" height="16" rx="8" fill="#6B86B2"/>
  <text x="84" y="670" fill="#E2E8F0" font-family="Inter, sans-serif" font-size="22" font-weight="700">WC Chat App - Realtime Messaging UI</text>
</svg>
